<svg xmlns="http://www.w3.org/2000/svg" viewBox="0 0 40 32.82"><defs><style>.cls-1{isolation:isolate;}.cls-2{fill:#fff;}</style></defs><title>PCA-White_withoutText</title><g id="Layer_2" data-name="Layer 2"><g id="Nightscape"><g id="Group_1820" data-name="Group 1820"><g id="Group_1819" data-name="Group 1819"><g id="_" data-name=" " class="cls-1"><g class="cls-1"><path class="cls-2" d="M14.86,1.12a2.11,2.11,0,0,1-.15.86.62.62,0,0,1-.49.4c-.11,0-.22.11-.34.27a.5.5,0,0,1-.37.26A.91.91,0,0,1,13,2.73a.81.81,0,0,0-.54-.18A5.7,5.7,0,0,0,11,2.94a9.56,9.56,0,0,0-1.34.7,2.68,2.68,0,0,0-1,1.22A10,10,0,0,0,8,7a6.24,6.24,0,0,1-.19.88,4.25,4.25,0,0,0-.17.8c0,.33-.08.65-.11.94a6.17,6.17,0,0,1-.1.76,9.84,9.84,0,0,1-.36,1.39c-.12.43-.24.89-.36,1.36a3.74,3.74,0,0,1-.48,1.18,2.75,2.75,0,0,1-.87.89c-.35.21-.68.42-1,.63A4,4,0,0,1,5.81,17.5a6.11,6.11,0,0,1,.48,2.55,7.6,7.6,0,0,1,0,.76c0,.29-.06.61-.11.94a3.82,3.82,0,0,0,0,.68,3.16,3.16,0,0,1,0,.69,5.54,5.54,0,0,1-.24,1.08,9.12,9.12,0,0,0-.28,1.05c-.13.59-.22,1.12-.28,1.6s-.08.83-.08,1a3.67,3.67,0,0,0,.07.77,2,2,0,0,0,.2.56,1.75,1.75,0,0,0,.73.65,2.54,2.54,0,0,0,1.08.21,9.36,9.36,0,0,0,1.95-.28,10.42,10.42,0,0,1,1.57-.29.67.67,0,0,1,.45.13.44.44,0,0,1,.14.34A1.62,1.62,0,0,1,11,31.08a3.3,3.3,0,0,1-1.28.86,8.15,8.15,0,0,1-1.63.49,10,10,0,0,1-1.86.17c-1.66,0-2.74-.31-3.25-.91a4.22,4.22,0,0,1-.77-2.8c0-.32,0-.77.05-1.35a16.47,16.47,0,0,1,.24-1.83,3.64,3.64,0,0,1,.24-.78,3.37,3.37,0,0,0,.25-.8c0-.33.06-.67.07-1a9.42,9.42,0,0,1,.07-.95c.06-.46.11-.88.16-1.26a7.5,7.5,0,0,0,.08-.9,4,4,0,0,0-.21-1.34,3.64,3.64,0,0,0-.64-1.09,2.42,2.42,0,0,0-.67-.49l-1-.5-.64-.33C.07,16.17,0,16.08,0,16a1.9,1.9,0,0,1,.16-.63,1.09,1.09,0,0,1,.66-.63c.46-.19.89-.37,1.27-.51a2.37,2.37,0,0,0,.92-.6,4.87,4.87,0,0,0,.57-.81,6.76,6.76,0,0,0,.44-1c.1-.31.19-.65.27-1a8,8,0,0,0,.19-1.16c.07-.59.15-1.15.24-1.7A14.58,14.58,0,0,1,5.05,6.4c.15-.57.32-1.1.5-1.61a7.87,7.87,0,0,1,.66-1.4A5.82,5.82,0,0,1,7.07,2.3,7.72,7.72,0,0,1,8,1.47,7,7,0,0,1,10.12.41,8.64,8.64,0,0,1,12.65.05a3.91,3.91,0,0,1,1.68.26A.85.85,0,0,1,14.86,1.12Z"/><path class="cls-2" d="M40,16.68a1.12,1.12,0,0,1-.31.6,2.44,2.44,0,0,1-.81.66l-.25.16a.54.54,0,0,1-.27.09.57.57,0,0,1-.26,0,.51.51,0,0,0-.25,0,1.75,1.75,0,0,0-.49.38,3.71,3.71,0,0,0-.37.49,7.18,7.18,0,0,0-.92,1.72A9.09,9.09,0,0,0,35.54,23c0,.23,0,.48,0,.72a4.4,4.4,0,0,1-.06.73,5.88,5.88,0,0,1-.19.65,4,4,0,0,0-.19.63c-.06.28-.11.56-.16.85a6.68,6.68,0,0,1-.2.8,5.51,5.51,0,0,1-.31.65c-.12.21-.22.41-.32.61s-.19.43-.27.65a1.82,1.82,0,0,1-.3.59,3.67,3.67,0,0,1-.75.72l-.79.57-.76.56a3.47,3.47,0,0,1-.84.47l-.6.26a2,2,0,0,1-.64.2,3.8,3.8,0,0,1-.89,0,7,7,0,0,0-.92-.06,1.71,1.71,0,0,0-.62.12,1,1,0,0,1-.53.09,1.14,1.14,0,0,1-.78-.5,1.35,1.35,0,0,1-.26-.72,2.19,2.19,0,0,1,.17-.94.59.59,0,0,1,.47-.37l.93-.09c.3,0,.59-.06.88-.1A6.08,6.08,0,0,0,29,29.76,6,6,0,0,0,30.36,29a3.38,3.38,0,0,0,.93-1.24A9.73,9.73,0,0,0,32,25.67q.15-.77.24-1.41c.07-.44.13-.82.18-1.16a4.31,4.31,0,0,1,.19-.61,2.33,2.33,0,0,0,.17-.51,6.74,6.74,0,0,0,.15-1.11A9.19,9.19,0,0,1,34,18.47a5.82,5.82,0,0,1,1.6-1.64,3.74,3.74,0,0,1-1.41-1.67,6.25,6.25,0,0,1-.48-2.58,24.1,24.1,0,0,1,.52-4.16,23.85,23.85,0,0,0,.53-3.66A4.34,4.34,0,0,0,34.7,4a1.61,1.61,0,0,0-.21-.57,1.72,1.72,0,0,0-.71-.65,2.45,2.45,0,0,0-1.1-.23,2.64,2.64,0,0,0-.92.21,6,6,0,0,1-1.1.32,3.78,3.78,0,0,1-.93.08l-.59,0A.73.73,0,0,1,28.73,3a.36.36,0,0,1-.16-.31A2.2,2.2,0,0,1,28.7,2a1.7,1.7,0,0,1,.36-.61,1.58,1.58,0,0,1,.53-.37L30.3.72l.84-.38a3.24,3.24,0,0,1,.91-.27,4,4,0,0,1,.85,0c.29,0,.58,0,.89,0s.56,0,.84,0a4.44,4.44,0,0,1,.74,0,2.45,2.45,0,0,1,2,1.21,6.05,6.05,0,0,1,.45,2.54,28.77,28.77,0,0,1-.57,4.54,29,29,0,0,0-.57,4.33A4.27,4.27,0,0,0,36.86,14a2.65,2.65,0,0,0,.64,1,1.34,1.34,0,0,0,.7.36,5.86,5.86,0,0,1,1,.29,1.06,1.06,0,0,1,.61.5A1.19,1.19,0,0,1,40,16.68Z"/></g></g><g id="_2" data-name=" 2" class="cls-1"><g class="cls-1"><path class="cls-2" d="M25.73,4.64a.8.8,0,0,1,.31.05.24.24,0,0,1,.14.14C25.9,5.94,25.59,7,25.26,7.9a18.14,18.14,0,0,1-1.09,2.53c-.13.3-.29.64-.47,1l-.63,1.32c-.65,1.16-1.28,2.3-1.89,3.41-.49.88-.95,1.69-1.35,2.43s-.79,1.41-1.14,2c-.08.21-.19.46-.31.75s-.28.64-.45,1.05q-.12.27-.24.51l-.24.52a2.43,2.43,0,0,0-.14.48,5.14,5.14,0,0,0,0,.59.84.84,0,0,1-.39.72,1.36,1.36,0,0,1-.82.28l-.15,0s-.08,0-.11-.09a7.71,7.71,0,0,0-.09-.93,1.38,1.38,0,0,1,0-.31,1.67,1.67,0,0,1,0-.28c0-.12.06-.25.1-.38a2.11,2.11,0,0,0,.15-.41,1.46,1.46,0,0,1,.06-.23c0-.07.11-.27.26-.62s.37-.8.67-1.39.51-1.13.86-1.9l1.25-2.67c.26-.47.58-1.08,1-1.81L21.31,12a2.34,2.34,0,0,1,.11-.3l.17-.4a1.75,1.75,0,0,0,.25-.39l.28-.58.48-1.57c.13-.43.28-.9.46-1.4s.38-1,.58-1.62a1.37,1.37,0,0,1,.21-.42,1.24,1.24,0,0,1,.21-.23l.3,0L24.63,5l.58-.22A1.72,1.72,0,0,1,25.73,4.64Z"/></g></g><g id="_3" data-name=" 3" class="cls-1"><g class="cls-1"><path class="cls-2" d="M31,14.54a1.15,1.15,0,0,1-.07.28.78.78,0,0,1-.16.24,9,9,0,0,1-.82.69c-.47.37-1.12.88-2,1.52s-1.61,1.2-2.1,1.52-.78.48-.87.43S25,19.15,25,19a2.63,2.63,0,0,1,0-.44c0-.27,0-.49,0-.64a.49.49,0,0,1,.12-.29,1.56,1.56,0,0,1,.45-.13,1.47,1.47,0,0,0,.55-.2c.37-.24.85-.57,1.43-1l2.08-1.45c-.37-.3-.93-.68-1.67-1.17s-1.68-1.06-2.8-1.73a.67.67,0,0,1-.15-.14.23.23,0,0,1-.06-.16.49.49,0,0,1,0-.15.79.79,0,0,1,.08-.16.57.57,0,0,1,.2-.19.18.18,0,0,1,.19,0,.26.26,0,0,0,.2,0,.33.33,0,0,1,.2,0,.2.2,0,0,1,.07.1s0,.09.06.1c.51.31,1.05.63,1.62.95s1.14.63,1.72.93l1.64.88a.29.29,0,0,1,.08.14A.26.26,0,0,1,31,14.54Z"/></g></g><g id="_4" data-name=" 4" class="cls-1"><g class="cls-1"><path class="cls-2" d="M9.12,16.6a.29.29,0,0,1,.08-.14l1.64-.88c.59-.3,1.16-.61,1.72-.93s1.11-.64,1.62-1a.13.13,0,0,0,.07-.1.14.14,0,0,1,.06-.1.34.34,0,0,1,.2,0,.31.31,0,0,0,.2,0,.18.18,0,0,1,.19,0,.5.5,0,0,1,.2.19.89.89,0,0,1,.09.16,1,1,0,0,1,0,.15.23.23,0,0,1-.06.16.67.67,0,0,1-.15.14c-1.12.67-2.05,1.25-2.8,1.73s-1.3.87-1.67,1.17l2.08,1.45c.58.41,1.06.74,1.43,1a1.53,1.53,0,0,0,.56.2,1.36,1.36,0,0,1,.44.13c.06,0,.1.13.12.29a4.61,4.61,0,0,1,.05.64,1.86,1.86,0,0,1,0,.44c0,.11-.06.17-.1.18s-.37-.1-.87-.43-1.19-.83-2.1-1.52S10.63,18.33,10.17,18a8.32,8.32,0,0,1-.83-.69A.61.61,0,0,1,9.19,17a1.15,1.15,0,0,1-.08-.28A.38.38,0,0,1,9.12,16.6Z"/></g></g></g></g></g></g></svg>